<svg xmlns="http://www.w3.org/2000/svg" width="1200" height="750" viewBox="0 0 1200 750">
<rect width="1200" height="750" fill="#181818"/>
<defs><pattern id="g" width="14.6" height="14.6" patternUnits="userSpaceOnUse"><circle cx="1" cy="1" r="1" fill="#2a2a2a"/></pattern></defs>
<rect width="1200" height="750" fill="url(#g)"/>
<path d="M143.2 321.1 C188.6 321.1 188.6 321.1 234.0 321.1" stroke="#7a7a7a" stroke-width="1.6" fill="none"/>
<path d="M228.1 317.6 L234.0 321.1 L228.1 324.6z" fill="#7a7a7a"/>
<path d="M307.2 321.1 C352.6 321.1 352.6 321.1 398.0 321.1" stroke="#7a7a7a" stroke-width="1.6" fill="none"/>
<path d="M392.1 317.6 L398.0 321.1 L392.1 324.6z" fill="#7a7a7a"/>
<path d="M471.2 321.1 C516.5 321.1 516.5 321.1 561.9 321.1" stroke="#7a7a7a" stroke-width="1.6" fill="none"/>
<path d="M556.1 317.6 L561.9 321.1 L556.1 324.6z" fill="#7a7a7a"/>
<path d="M635.1 321.1 C682.0 321.1 682.0 145.4 728.8 145.4" stroke="#7a7a7a" stroke-width="1.6" fill="none"/>
<path d="M723.0 141.9 L728.8 145.4 L723.0 148.9z" fill="#7a7a7a"/>
<path d="M635.1 321.1 C682.0 321.1 682.0 321.1 728.8 321.1" stroke="#7a7a7a" stroke-width="1.6" fill="none"/>
<path d="M723.0 317.6 L728.8 321.1 L723.0 324.6z" fill="#7a7a7a"/>
<path d="M635.1 321.1 C682.0 321.1 682.0 496.8 728.8 496.8" stroke="#7a7a7a" stroke-width="1.6" fill="none"/>
<path d="M723.0 493.3 L728.8 496.8 L723.0 500.3z" fill="#7a7a7a"/>
<path d="M802.0 145.4 C847.4 145.4 847.4 145.4 892.8 145.4" stroke="#7a7a7a" stroke-width="1.6" fill="none"/>
<path d="M887.0 141.9 L892.8 145.4 L887.0 148.9z" fill="#7a7a7a"/>
<path d="M802.0 321.1 C847.4 321.1 847.4 321.1 892.8 321.1" stroke="#7a7a7a" stroke-width="1.6" fill="none"/>
<path d="M887.0 317.6 L892.8 321.1 L887.0 324.6z" fill="#7a7a7a"/>
<path d="M802.0 496.8 C847.4 496.8 847.4 584.6 892.8 584.6" stroke="#7a7a7a" stroke-width="1.6" fill="none"/>
<path d="M887.0 581.1 L892.8 584.6 L887.0 588.1z" fill="#7a7a7a"/>
<path d="M966.0 584.6 C1011.4 584.6 1011.4 496.8 1056.8 496.8" stroke="#7a7a7a" stroke-width="1.6" fill="none"/>
<path d="M1050.9 493.3 L1056.8 496.8 L1050.9 500.3z" fill="#7a7a7a"/>
<path d="M106.6 284.5 H133.0 a10.2 10.2 0 0 1 10.2 10.2 V347.4 a10.2 10.2 0 0 1 -10.2 10.2 H106.6 A36.6 36.6 0 0 1 106.6 284.5z" fill="#2c2c2c" stroke="#454545" stroke-width="1.5"/>
<g transform="translate(106.6 321.1) scale(0.732) translate(-106.6 -321.1)"><circle cx="106.60220994475138" cy="321.0773480662984" r="13" fill="none" stroke="#ff8b48" stroke-width="2.6"/><path d="M106.60220994475138 313.0773480662984 V321.0773480662984 H112.60220994475138" stroke="#ff8b48" stroke-width="2.6" fill="none"/></g>
<circle cx="143.2" cy="321.1" r="3.3" fill="#181818" stroke="#7a7a7a" stroke-width="1.5"/>
<path transform="translate(51.0 314.5) scale(0.732)" d="M8 0 l-7 11 h6 l-2 9 8 -11 h-5z" fill="#ff8b48"/>
<text x="106.6" y="373.8" text-anchor="middle" font-family="DM Sans, Arial" font-size="10.2" font-weight="600" fill="#f2f2f2">Daily Check</text>
<text x="106.6" y="385.6" text-anchor="middle" font-family="DM Sans, Arial" font-size="10.2" font-weight="600" fill="#f2f2f2">(9 AM)</text>
<rect x="234.0" y="284.5" width="73.2" height="73.2" rx="10.2" fill="#2c2c2c" stroke="#454545" stroke-width="1.5"/>
<g transform="translate(270.6 321.1) scale(0.732) translate(-270.6 -321.1)"><path d="M261.58011049723757 308.0773480662984 H274.58011049723757 L280.58011049723757 314.0773480662984 V334.0773480662984 H261.58011049723757z" fill="#34a853"/><path d="M265.58011049723757 320.0773480662984 H276.58011049723757 M265.58011049723757 325.0773480662984 H276.58011049723757 M265.58011049723757 329.0773480662984 H276.58011049723757 M270.58011049723757 320.0773480662984 V329.0773480662984" stroke="#fff" stroke-width="1.6"/></g>
<circle cx="234.0" cy="321.1" r="3.3" fill="#181818" stroke="#7a7a7a" stroke-width="1.5"/>
<circle cx="307.2" cy="321.1" r="3.3" fill="#181818" stroke="#7a7a7a" stroke-width="1.5"/>
<text x="270.6" y="373.8" text-anchor="middle" font-family="DM Sans, Arial" font-size="10.2" font-weight="600" fill="#f2f2f2">Read Invoices</text>
<text x="270.6" y="385.5" text-anchor="middle" font-family="DM Sans, Arial" font-size="8.1" fill="#9a9a9a">read: sheet</text>
<rect x="398.0" y="284.5" width="73.2" height="73.2" rx="10.2" fill="#2c2c2c" stroke="#454545" stroke-width="1.5"/>
<g transform="translate(434.6 321.1) scale(0.732) translate(-434.6 -321.1)"><text x="434.55801104972375" y="330.0773480662984" text-anchor="middle" font-family="DM Sans, Arial" font-size="26" font-weight="700" fill="#ffab5e">{ }</text></g>
<circle cx="398.0" cy="321.1" r="3.3" fill="#181818" stroke="#7a7a7a" stroke-width="1.5"/>
<circle cx="471.2" cy="321.1" r="3.3" fill="#181818" stroke="#7a7a7a" stroke-width="1.5"/>
<text x="434.6" y="373.8" text-anchor="middle" font-family="DM Sans, Arial" font-size="10.2" font-weight="600" fill="#f2f2f2">Filter Overdue</text>
<text x="434.6" y="385.6" text-anchor="middle" font-family="DM Sans, Arial" font-size="10.2" font-weight="600" fill="#f2f2f2">&amp; Calculate Days</text>
<rect x="561.9" y="284.5" width="73.2" height="73.2" rx="10.2" fill="#2c2c2c" stroke="#454545" stroke-width="1.5"/>
<g transform="translate(598.5 321.1) scale(0.732) translate(-598.5 -321.1)"><path d="M596.5359116022099 334.0773480662984 V308.0773480662984" stroke="#4f9cf7" stroke-width="3"/><path d="M596.5359116022099 312.0773480662984 h13 l4 4 -4 4 h-13z M596.5359116022099 322.0773480662984 h-11 l-4 4 4 4 h11z" fill="#4f9cf7"/></g>
<circle cx="561.9" cy="321.1" r="3.3" fill="#181818" stroke="#7a7a7a" stroke-width="1.5"/>
<circle cx="635.1" cy="321.1" r="3.3" fill="#181818" stroke="#7a7a7a" stroke-width="1.5"/>
<text x="598.5" y="373.8" text-anchor="middle" font-family="DM Sans, Arial" font-size="10.2" font-weight="600" fill="#f2f2f2">Route by</text>
<text x="598.5" y="385.6" text-anchor="middle" font-family="DM Sans, Arial" font-size="10.2" font-weight="600" fill="#f2f2f2">Overdue Tier</text>
<text x="598.5" y="397.3" text-anchor="middle" font-family="DM Sans, Arial" font-size="8.1" fill="#9a9a9a">mode: Rules</text>
<rect x="728.8" y="108.8" width="73.2" height="73.2" rx="10.2" fill="#2c2c2c" stroke="#454545" stroke-width="1.5"/>
<g transform="translate(765.4 145.4) scale(0.732) translate(-765.4 -145.4)"><rect x="750.4419889502763" y="135.38674033149175" width="30" height="20" rx="2" fill="#fff"/><path d="M750.4419889502763 137.38674033149175 L765.4419889502763 148.38674033149175 L780.4419889502763 137.38674033149175" stroke="#ea4335" stroke-width="3.2" fill="none"/><path d="M750.4419889502763 137.38674033149175 V155.38674033149175" stroke="#4285f4" stroke-width="3"/><path d="M780.4419889502763 137.38674033149175 V155.38674033149175" stroke="#34a853" stroke-width="3"/><path d="M750.4419889502763 154.38674033149175 H756.4419889502763" stroke="#fbbc05" stroke-width="3"/></g>
<circle cx="728.8" cy="145.4" r="3.3" fill="#181818" stroke="#7a7a7a" stroke-width="1.5"/>
<circle cx="802.0" cy="145.4" r="3.3" fill="#181818" stroke="#7a7a7a" stroke-width="1.5"/>
<text x="765.4" y="198.1" text-anchor="middle" font-family="DM Sans, Arial" font-size="10.2" font-weight="600" fill="#f2f2f2">Send First</text>
<text x="765.4" y="209.9" text-anchor="middle" font-family="DM Sans, Arial" font-size="10.2" font-weight="600" fill="#f2f2f2">Reminder</text>
<text x="765.4" y="221.6" text-anchor="middle" font-family="DM Sans, Arial" font-size="8.1" fill="#9a9a9a">send: message</text>
<rect x="892.8" y="108.8" width="73.2" height="73.2" rx="10.2" fill="#2c2c2c" stroke="#454545" stroke-width="1.5"/>
<g transform="translate(929.4 145.4) scale(0.732) translate(-929.4 -145.4)"><path d="M920.4198895027624 132.38674033149175 H933.4198895027624 L939.4198895027624 138.38674033149175 V158.38674033149175 H920.4198895027624z" fill="#34a853"/><path d="M924.4198895027624 144.38674033149175 H935.4198895027624 M924.4198895027624 149.38674033149175 H935.4198895027624 M924.4198895027624 153.38674033149175 H935.4198895027624 M929.4198895027624 144.38674033149175 V153.38674033149175" stroke="#fff" stroke-width="1.6"/></g>
<circle cx="892.8" cy="145.4" r="3.3" fill="#181818" stroke="#7a7a7a" stroke-width="1.5"/>
<circle cx="966.0" cy="145.4" r="3.3" fill="#181818" stroke="#7a7a7a" stroke-width="1.5"/>
<path d="M969.3 145.4 h16.1" stroke="#7a7a7a" stroke-width="1.5"/><rect x="985.4" y="139.5" width="11.7" height="11.7" rx="2.2" fill="#3a3a3a"/><text x="991.3" y="148.3" text-anchor="middle" font-size="8.8" fill="#ddd" font-family="Arial">+</text>
<text x="929.4" y="198.1" text-anchor="middle" font-family="DM Sans, Arial" font-size="10.2" font-weight="600" fill="#f2f2f2">Update Sheet</text>
<text x="929.4" y="209.9" text-anchor="middle" font-family="DM Sans, Arial" font-size="10.2" font-weight="600" fill="#f2f2f2">- Level 1</text>
<text x="929.4" y="221.6" text-anchor="middle" font-family="DM Sans, Arial" font-size="8.1" fill="#9a9a9a">append: sheet</text>
<rect x="728.8" y="284.5" width="73.2" height="73.2" rx="10.2" fill="#2c2c2c" stroke="#454545" stroke-width="1.5"/>
<g transform="translate(765.4 321.1) scale(0.732) translate(-765.4 -321.1)"><rect x="750.4419889502763" y="311.0773480662984" width="30" height="20" rx="2" fill="#fff"/><path d="M750.4419889502763 313.0773480662984 L765.4419889502763 324.0773480662984 L780.4419889502763 313.0773480662984" stroke="#ea4335" stroke-width="3.2" fill="none"/><path d="M750.4419889502763 313.0773480662984 V331.0773480662984" stroke="#4285f4" stroke-width="3"/><path d="M780.4419889502763 313.0773480662984 V331.0773480662984" stroke="#34a853" stroke-width="3"/><path d="M750.4419889502763 330.0773480662984 H756.4419889502763" stroke="#fbbc05" stroke-width="3"/></g>
<circle cx="728.8" cy="321.1" r="3.3" fill="#181818" stroke="#7a7a7a" stroke-width="1.5"/>
<circle cx="802.0" cy="321.1" r="3.3" fill="#181818" stroke="#7a7a7a" stroke-width="1.5"/>
<text x="765.4" y="373.8" text-anchor="middle" font-family="DM Sans, Arial" font-size="10.2" font-weight="600" fill="#f2f2f2">Send Second</text>
<text x="765.4" y="385.6" text-anchor="middle" font-family="DM Sans, Arial" font-size="10.2" font-weight="600" fill="#f2f2f2">Reminder</text>
<text x="765.4" y="397.3" text-anchor="middle" font-family="DM Sans, Arial" font-size="8.1" fill="#9a9a9a">send: message</text>
<rect x="892.8" y="284.5" width="73.2" height="73.2" rx="10.2" fill="#2c2c2c" stroke="#454545" stroke-width="1.5"/>
<g transform="translate(929.4 321.1) scale(0.732) translate(-929.4 -321.1)"><path d="M920.4198895027624 308.0773480662984 H933.4198895027624 L939.4198895027624 314.0773480662984 V334.0773480662984 H920.4198895027624z" fill="#34a853"/><path d="M924.4198895027624 320.0773480662984 H935.4198895027624 M924.4198895027624 325.0773480662984 H935.4198895027624 M924.4198895027624 329.0773480662984 H935.4198895027624 M929.4198895027624 320.0773480662984 V329.0773480662984" stroke="#fff" stroke-width="1.6"/></g>
<circle cx="892.8" cy="321.1" r="3.3" fill="#181818" stroke="#7a7a7a" stroke-width="1.5"/>
<circle cx="966.0" cy="321.1" r="3.3" fill="#181818" stroke="#7a7a7a" stroke-width="1.5"/>
<path d="M969.3 321.1 h16.1" stroke="#7a7a7a" stroke-width="1.5"/><rect x="985.4" y="315.2" width="11.7" height="11.7" rx="2.2" fill="#3a3a3a"/><text x="991.3" y="324.0" text-anchor="middle" font-size="8.8" fill="#ddd" font-family="Arial">+</text>
<text x="929.4" y="373.8" text-anchor="middle" font-family="DM Sans, Arial" font-size="10.2" font-weight="600" fill="#f2f2f2">Update Sheet</text>
<text x="929.4" y="385.6" text-anchor="middle" font-family="DM Sans, Arial" font-size="10.2" font-weight="600" fill="#f2f2f2">- Level 2</text>
<text x="929.4" y="397.3" text-anchor="middle" font-family="DM Sans, Arial" font-size="8.1" fill="#9a9a9a">append: sheet</text>
<rect x="728.8" y="460.2" width="73.2" height="73.2" rx="10.2" fill="#2c2c2c" stroke="#454545" stroke-width="1.5"/>
<g transform="translate(765.4 496.8) scale(0.732) translate(-765.4 -496.8)"><rect x="750.4419889502763" y="486.767955801105" width="30" height="20" rx="2" fill="#fff"/><path d="M750.4419889502763 488.767955801105 L765.4419889502763 499.767955801105 L780.4419889502763 488.767955801105" stroke="#ea4335" stroke-width="3.2" fill="none"/><path d="M750.4419889502763 488.767955801105 V506.767955801105" stroke="#4285f4" stroke-width="3"/><path d="M780.4419889502763 488.767955801105 V506.767955801105" stroke="#34a853" stroke-width="3"/><path d="M750.4419889502763 505.767955801105 H756.4419889502763" stroke="#fbbc05" stroke-width="3"/></g>
<circle cx="728.8" cy="496.8" r="3.3" fill="#181818" stroke="#7a7a7a" stroke-width="1.5"/>
<circle cx="802.0" cy="496.8" r="3.3" fill="#181818" stroke="#7a7a7a" stroke-width="1.5"/>
<text x="765.4" y="549.5" text-anchor="middle" font-family="DM Sans, Arial" font-size="10.2" font-weight="600" fill="#f2f2f2">Send Escalation</text>
<text x="765.4" y="561.3" text-anchor="middle" font-family="DM Sans, Arial" font-size="10.2" font-weight="600" fill="#f2f2f2">Email</text>
<text x="765.4" y="573.0" text-anchor="middle" font-family="DM Sans, Arial" font-size="8.1" fill="#9a9a9a">send: message</text>
<rect x="892.8" y="548.0" width="73.2" height="73.2" rx="10.2" fill="#2c2c2c" stroke="#454545" stroke-width="1.5"/>
<g transform="translate(929.4 584.6) scale(0.732) translate(-929.4 -584.6)"><rect x="914.4198895027624" y="574.6132596685084" width="30" height="20" rx="2" fill="#fff"/><path d="M914.4198895027624 576.6132596685084 L929.4198895027624 587.6132596685084 L944.4198895027624 576.6132596685084" stroke="#ea4335" stroke-width="3.2" fill="none"/><path d="M914.4198895027624 576.6132596685084 V594.6132596685084" stroke="#4285f4" stroke-width="3"/><path d="M944.4198895027624 576.6132596685084 V594.6132596685084" stroke="#34a853" stroke-width="3"/><path d="M914.4198895027624 593.6132596685084 H920.4198895027624" stroke="#fbbc05" stroke-width="3"/></g>
<circle cx="892.8" cy="584.6" r="3.3" fill="#181818" stroke="#7a7a7a" stroke-width="1.5"/>
<circle cx="966.0" cy="584.6" r="3.3" fill="#181818" stroke="#7a7a7a" stroke-width="1.5"/>
<text x="929.4" y="637.3" text-anchor="middle" font-family="DM Sans, Arial" font-size="10.2" font-weight="600" fill="#f2f2f2">Alert Freelancer</text>
<text x="929.4" y="649.1" text-anchor="middle" font-family="DM Sans, Arial" font-size="10.2" font-weight="600" fill="#f2f2f2">(30+ Days)</text>
<text x="929.4" y="660.8" text-anchor="middle" font-family="DM Sans, Arial" font-size="8.1" fill="#9a9a9a">send: message</text>
<rect x="1056.8" y="460.2" width="73.2" height="73.2" rx="10.2" fill="#2c2c2c" stroke="#454545" stroke-width="1.5"/>
<g transform="translate(1093.4 496.8) scale(0.732) translate(-1093.4 -496.8)"><path d="M1084.3977900552486 483.767955801105 H1097.3977900552486 L1103.3977900552486 489.767955801105 V509.767955801105 H1084.3977900552486z" fill="#34a853"/><path d="M1088.3977900552486 495.767955801105 H1099.3977900552486 M1088.3977900552486 500.767955801105 H1099.3977900552486 M1088.3977900552486 504.767955801105 H1099.3977900552486 M1093.3977900552486 495.767955801105 V504.767955801105" stroke="#fff" stroke-width="1.6"/></g>
<circle cx="1056.8" cy="496.8" r="3.3" fill="#181818" stroke="#7a7a7a" stroke-width="1.5"/>
<circle cx="1130.0" cy="496.8" r="3.3" fill="#181818" stroke="#7a7a7a" stroke-width="1.5"/>
<path d="M1133.3 496.8 h16.1" stroke="#7a7a7a" stroke-width="1.5"/><rect x="1149.4" y="490.9" width="11.7" height="11.7" rx="2.2" fill="#3a3a3a"/><text x="1155.3" y="499.7" text-anchor="middle" font-size="8.8" fill="#ddd" font-family="Arial">+</text>
<text x="1093.4" y="549.5" text-anchor="middle" font-family="DM Sans, Arial" font-size="10.2" font-weight="600" fill="#f2f2f2">Update Sheet</text>
<text x="1093.4" y="561.3" text-anchor="middle" font-family="DM Sans, Arial" font-size="10.2" font-weight="600" fill="#f2f2f2">- Escalation</text>
<text x="1093.4" y="573.0" text-anchor="middle" font-family="DM Sans, Arial" font-size="8.1" fill="#9a9a9a">append: sheet</text>
</svg>